<mxfile host="Electron" modified="2023-12-14T23:29:47.949Z" agent="Mozilla/5.0 (Windows NT 10.0; Win64; x64) AppleWebKit/537.36 (KHTML, like Gecko) draw.io/22.1.2 Chrome/114.0.5735.289 Electron/25.9.4 Safari/537.36" etag="SMDJ3o83MzKdbXwHa1lp" version="22.1.2" type="device">
  <diagram id="C5RBs43oDa-KdzZeNtuy" name="Page-1">
    <mxGraphModel dx="797" dy="722" grid="1" gridSize="10" guides="1" tooltips="1" connect="1" arrows="1" fold="1" page="1" pageScale="1" pageWidth="827" pageHeight="1169" math="0" shadow="0">
      <root>
        <mxCell id="WIyWlLk6GJQsqaUBKTNV-0" />
        <mxCell id="WIyWlLk6GJQsqaUBKTNV-1" parent="WIyWlLk6GJQsqaUBKTNV-0" />
        <mxCell id="Fr4rMvvucwwGDyeQmYoK-4" value="main(String[]): void start(Stage): void switchToTrigMenu(Stage): void handleButtonSelection(int, Stage): void" style="whiteSpace=wrap;html=1;" vertex="1" parent="WIyWlLk6GJQsqaUBKTNV-1">
          <mxGeometry x="360" y="150" width="160" height="180" as="geometry" />
        </mxCell>
        <mxCell id="Fr4rMvvucwwGDyeQmYoK-6" value="TrigProjectTestClass" style="rounded=0;whiteSpace=wrap;html=1;" vertex="1" parent="WIyWlLk6GJQsqaUBKTNV-1">
          <mxGeometry x="360" y="120" width="160" height="30" as="geometry" />
        </mxCell>
        <mxCell id="Fr4rMvvucwwGDyeQmYoK-8" value="TrigMenu" style="rounded=0;whiteSpace=wrap;html=1;" vertex="1" parent="WIyWlLk6GJQsqaUBKTNV-1">
          <mxGeometry x="580" y="120" width="160" height="40" as="geometry" />
        </mxCell>
        <mxCell id="Fr4rMvvucwwGDyeQmYoK-9" value="main(String[]): void start(Stage): void switchToTrigMenu(Stage): void handleButtonSelection(int, Stage): voidv" style="rounded=0;whiteSpace=wrap;html=1;" vertex="1" parent="WIyWlLk6GJQsqaUBKTNV-1">
          <mxGeometry x="580" y="160" width="160" height="150" as="geometry" />
        </mxCell>
        <mxCell id="Fr4rMvvucwwGDyeQmYoK-11" value="" style="rounded=0;whiteSpace=wrap;html=1;" vertex="1" parent="WIyWlLk6GJQsqaUBKTNV-1">
          <mxGeometry x="600" y="440" width="120" height="60" as="geometry" />
        </mxCell>
        <mxCell id="Fr4rMvvucwwGDyeQmYoK-12" value="main(String[]): void start(Stage): void createLearnLessonScene(): Scene checkAnswer(String, String): boolean displayNextProblem(Label, TextField, ProgressBar): void getNextProblem(): Object getProgress(): double getTotalProblems(): int getSolvedProblems(): int getLessonProblemSet(int): Iterator&amp;lt;String[]&amp;gt; generateAnglesInDegreesAndRadiansProblem(): Iterator&amp;lt;String[]&amp;gt; generateConvertingBetweenDegreesAndRadiansProblem1(): Iterator&amp;lt;String[]&amp;gt; generateArcLengthProblem(): Iterator&amp;lt;String[]&amp;gt; generateAreaOfSectorProblem(): Iterator&amp;lt;String[]&amp;gt;" style="rounded=0;whiteSpace=wrap;html=1;" vertex="1" parent="WIyWlLk6GJQsqaUBKTNV-1">
          <mxGeometry x="400" y="440" width="320" height="270" as="geometry" />
        </mxCell>
        <mxCell id="Fr4rMvvucwwGDyeQmYoK-13" value="PracticeController" style="rounded=0;whiteSpace=wrap;html=1;" vertex="1" parent="WIyWlLk6GJQsqaUBKTNV-1">
          <mxGeometry x="400" y="400" width="320" height="40" as="geometry" />
        </mxCell>
        <mxCell id="Fr4rMvvucwwGDyeQmYoK-15" value="LearnLessonController" style="rounded=0;whiteSpace=wrap;html=1;" vertex="1" parent="WIyWlLk6GJQsqaUBKTNV-1">
          <mxGeometry x="50" y="400" width="210" height="60" as="geometry" />
        </mxCell>
        <mxCell id="Fr4rMvvucwwGDyeQmYoK-16" value="main(String[]): void start(Stage): void switchToLearnLessonController(Stage, String, String): void displayLessonContent(String): void getLessonContent(String): String saveLessonProgress(String, String): void loadLessonProgress(String): String clearLessonProgress(String): void" style="rounded=0;whiteSpace=wrap;html=1;" vertex="1" parent="WIyWlLk6GJQsqaUBKTNV-1">
          <mxGeometry x="50" y="460" width="210" height="240" as="geometry" />
        </mxCell>
        <mxCell id="Fr4rMvvucwwGDyeQmYoK-17" value="main(String[]): void start(Stage): void switchtoCalculatorController(Stage): void evaluateExpression(String): String handleButtonAction(String, TextField): void isValidExpression(String): boolean clearInput(TextField): void&lt;br&gt;switchToOption5(Stage): void calculateTrigFunction(String, String): void mapSideTypeToInt(String): int convertDegreesToRadians(double): double main(String[]): void" style="rounded=0;whiteSpace=wrap;html=1;" vertex="1" parent="WIyWlLk6GJQsqaUBKTNV-1">
          <mxGeometry x="50" y="160" width="200" height="200" as="geometry" />
        </mxCell>
        <mxCell id="Fr4rMvvucwwGDyeQmYoK-18" value="CalculatorController" style="rounded=0;whiteSpace=wrap;html=1;" vertex="1" parent="WIyWlLk6GJQsqaUBKTNV-1">
          <mxGeometry x="50" y="130" width="200" height="30" as="geometry" />
        </mxCell>
        <mxCell id="Fr4rMvvucwwGDyeQmYoK-20" value="TrigMenu" style="rounded=0;whiteSpace=wrap;html=1;" vertex="1" parent="WIyWlLk6GJQsqaUBKTNV-1">
          <mxGeometry x="210" y="720" width="180" height="60" as="geometry" />
        </mxCell>
        <mxCell id="Fr4rMvvucwwGDyeQmYoK-21" value="--start(Stage): void&lt;br&gt;--switchToTrigMenu(Stage): void&lt;br&gt;--handleButtonSelection(int, Stage): void" style="rounded=0;whiteSpace=wrap;html=1;" vertex="1" parent="WIyWlLk6GJQsqaUBKTNV-1">
          <mxGeometry x="211" y="780" width="180" height="170" as="geometry" />
        </mxCell>
        <mxCell id="Fr4rMvvucwwGDyeQmYoK-23" value="" style="endArrow=classic;html=1;rounded=0;exitX=0.031;exitY=0.594;exitDx=0;exitDy=0;exitPerimeter=0;" edge="1" parent="WIyWlLk6GJQsqaUBKTNV-1" source="Fr4rMvvucwwGDyeQmYoK-4">
          <mxGeometry width="50" height="50" relative="1" as="geometry">
            <mxPoint x="260" y="370" as="sourcePoint" />
            <mxPoint x="260" y="250" as="targetPoint" />
          </mxGeometry>
        </mxCell>
        <mxCell id="Fr4rMvvucwwGDyeQmYoK-24" value="" style="endArrow=classic;html=1;rounded=0;exitX=1.056;exitY=0.511;exitDx=0;exitDy=0;exitPerimeter=0;entryX=0;entryY=0.5;entryDx=0;entryDy=0;" edge="1" parent="WIyWlLk6GJQsqaUBKTNV-1" source="Fr4rMvvucwwGDyeQmYoK-4" target="Fr4rMvvucwwGDyeQmYoK-9">
          <mxGeometry width="50" height="50" relative="1" as="geometry">
            <mxPoint x="375" y="267" as="sourcePoint" />
            <mxPoint x="270" y="260" as="targetPoint" />
          </mxGeometry>
        </mxCell>
        <mxCell id="Fr4rMvvucwwGDyeQmYoK-25" value="" style="endArrow=classic;html=1;rounded=0;exitX=0;exitY=1;exitDx=0;exitDy=0;" edge="1" parent="WIyWlLk6GJQsqaUBKTNV-1" source="Fr4rMvvucwwGDyeQmYoK-4">
          <mxGeometry width="50" height="50" relative="1" as="geometry">
            <mxPoint x="404" y="343" as="sourcePoint" />
            <mxPoint x="360" y="710" as="targetPoint" />
          </mxGeometry>
        </mxCell>
        <mxCell id="Fr4rMvvucwwGDyeQmYoK-26" value="" style="endArrow=classic;html=1;rounded=0;exitX=0.775;exitY=1.056;exitDx=0;exitDy=0;exitPerimeter=0;entryX=0.278;entryY=-0.125;entryDx=0;entryDy=0;entryPerimeter=0;" edge="1" parent="WIyWlLk6GJQsqaUBKTNV-1" source="Fr4rMvvucwwGDyeQmYoK-4" target="Fr4rMvvucwwGDyeQmYoK-13">
          <mxGeometry width="50" height="50" relative="1" as="geometry">
            <mxPoint x="539" y="252" as="sourcePoint" />
            <mxPoint x="590" y="245" as="targetPoint" />
          </mxGeometry>
        </mxCell>
        <mxCell id="Fr4rMvvucwwGDyeQmYoK-27" value="" style="endArrow=classic;html=1;rounded=0;exitX=0;exitY=0.75;exitDx=0;exitDy=0;" edge="1" parent="WIyWlLk6GJQsqaUBKTNV-1" source="Fr4rMvvucwwGDyeQmYoK-4">
          <mxGeometry width="50" height="50" relative="1" as="geometry">
            <mxPoint x="375" y="267" as="sourcePoint" />
            <mxPoint x="250" y="390" as="targetPoint" />
          </mxGeometry>
        </mxCell>
      </root>
    </mxGraphModel>
  </diagram>
</mxfile>
